<svg version="1.2" xmlns="http://www.w3.org/2000/svg" viewBox="0 0 20 18" width="25" height="25"><defs><clipPath clipPathUnits="userSpaceOnUse" id="cp1"><path d="m-392-244h960v539h-960z"/></clipPath></defs><style>.a{fill:#fff}</style><g clip-path="url(#cp1)"><path fill-rule="evenodd" class="a" d="m13.1 0.2q0.3 0 0.5 0.2l2 2q0.2 0.2 0.2 0.5 0.1 0.3-0.1 0.5l-1.1 1.2-3.1-3 1.1-1.1q0.2-0.2 0.5-0.3zm-9.7 10.7c0.4-0.1 0.8 0.1 0.9 0.5 0.1 0.4-0.1 0.7-0.5 0.9-1.1 0.3-1.8 0.9-2.1 1.5q-0.1 0.3 0 0.5 0 0.1 0.1 0.2c0.4 0.3 1.3 0.4 2.7 0 0.9-0.2 1.8-0.4 2.6-0.7 0.8-0.3 1.6-0.5 2.1-0.6 0.9-0.1 1.8-0.3 2.6-0.2 0.9 0 1.7 0.3 1.9 1.1 0.2 0.5 0.1 0.9 0.1 1.3q0 0.2 0 0.3c0 0 0.1 0 0.8 0 0.9-0.1 1.7-0.4 2.6-0.8q0.6-0.2 1.3-0.4c0.4-0.2 0.8 0.1 0.9 0.4 0.1 0.4-0.1 0.8-0.5 0.9-0.4 0.1-0.8 0.3-1.2 0.5-1 0.3-1.9 0.7-3 0.8-1.8 0.1-2.3-0.4-2.3-1.3q-0.1-0.3 0-0.6c0-0.2 0-0.5 0-0.7-0.1 0-0.3-0.1-0.7-0.1-0.6 0-1.5 0.1-2.3 0.2-0.4 0.1-1.1 0.3-1.9 0.6-0.8 0.2-1.7 0.5-2.6 0.7-1.9 0.5-3.2 0.3-3.9-0.2q-0.6-0.5-0.7-1.1-0.1-0.6 0.1-1.3c0.4-0.9 1.5-1.9 3-2.4zm7.1-8.3l3.1 3-4.2 4.4-3.7 1q-0.2 0-0.2-0.2l0.9-3.8zm-4.4 7.6q0 0.1 0.1 0l2.3-0.6-1.9-1.8z"/></g></svg>