<svg version="1.2" xmlns="http://www.w3.org/2000/svg" viewBox="0 0 11 12" width="20" height="20"><defs><clipPath clipPathUnits="userSpaceOnUse" id="cp1"><path d="m-703-246h960v539h-960z"/></clipPath></defs><style>.a{fill:#fff}</style><g clip-path="url(#cp1)"><path fill-rule="evenodd" class="a" d="m8.7 0.3l2 2c0.3 0.3 0.3 0.7 0 1l-1.1 1.1-2.9-3 1.1-1.1c0.2-0.2 0.7-0.2 0.9 0zm-4.5 9.5q-1.2 0.4-2.4 0.8c-1.9 0.5-1.9 0.9-1.4-0.9l0.8-2.8 4.9-4.9 3 2.9-4.9 4.9zm2.2-5q-0.2-0.2-0.3-0.2-0.2 0-0.3 0.2l-2.7 2.6c-0.1 0.2-0.2 0.3-0.1 0.5q0 0 0 0.1 0.1 0 0.1 0c0.1 0.2 0.3 0.2 0.4 0.1q0.1 0 0.1 0 0.1 0 0.1-0.1l2.7-2.6q0.1-0.2 0.1-0.3 0-0.2-0.1-0.3zm-5.2 4.5c-0.3 1.1-0.3 0.9 0.9 0.5q0.8-0.2 1.6-0.5l-2-1.9z"/></g></svg>