<svg version="1.2" xmlns="http://www.w3.org/2000/svg" viewBox="0 0 18 18" width="25" height="25"><defs><clipPath clipPathUnits="userSpaceOnUse" id="cp1"><path d="m-483-244h960v539h-960z"/></clipPath></defs><style>.a{fill:#fff}</style><g clip-path="url(#cp1)"><path class="a" d="m5 5.2c-0.1 0.2-0.4 0.2-0.5 0-0.2-0.1-0.1-0.3 0-0.5l4.5-4.3q0.1-0.1 0.3-0.2 0.2 0.1 0.3 0.2l4.3 4.3c0.1 0.2 0.1 0.4 0 0.5q-0.1 0.1-0.3 0.2-0.1 0-0.2-0.2l-3.8-3.7v12.2c0 0.2-0.1 0.4-0.3 0.4-0.2 0-0.4-0.2-0.4-0.4v-12.2zm12.1 8.1c0-0.2 0.2-0.4 0.4-0.4 0.2 0 0.4 0.2 0.4 0.4v3.4c0 0.2-0.2 0.3-0.4 0.3h-16.5c-0.2 0-0.4-0.1-0.4-0.3v-3.4c0-0.2 0.2-0.4 0.4-0.4 0.2 0 0.4 0.2 0.4 0.4v3h15.7z"/></g></svg>